/vscmnt/brussel_pixiu_data/_data_brussel/112/vsc11236/PredSimResults/SUBJ09opt3D/weighted-LRposFixed/trackIG/worker_03.mot
version=1
nRows=6
nColumns=50
inDegrees=yes
endheader
                time	         pelvis_tilt	         pelvis_list	     pelvis_rotation	           pelvis_tx	           pelvis_ty	           pelvis_tz	       hip_flexion_r	     hip_adduction_r	      hip_rotation_r	        knee_angle_r	       ankle_angle_r	         mtp_angle_r	       hip_flexion_l	     hip_adduction_l	      hip_rotation_l	        knee_angle_l	       ankle_angle_l	         mtp_angle_l	    lumbar_extension	      lumbar_bending	     lumbar_rotation	 ercspn_r/activation	 intobl_r/activation	 extobl_r/activation	    abd_r/activation	    add_r/activation	hamstrings_r/activation	bifemsh_r/activation	glut_max_r/activation	iliopsoas_r/activation	rect_fem_r/activation	  vasti_r/activation	gastroc_r/activation	 soleus_r/activation	tib_ant_r/activation	 ercspn_l/activation	 intobl_l/activation	 extobl_l/activation	    abd_l/activation	    add_l/activation	hamstrings_l/activation	bifemsh_l/activation	glut_max_l/activation	iliopsoas_l/activation	rect_fem_l/activation	  vasti_l/activation	gastroc_l/activation	 soleus_l/activation	tib_ant_l/activation	
          0.65169365	         -4.18822683	          0.80911586	         -7.31647847	          0.75596463	          0.99007126	          0.00141904	        -13.28733974	         -2.09203083	         -5.00790133	        -10.29047044	          4.54991259	         36.70816176	         28.27158670	         -1.10525476	         -7.61034432	         -5.50472714	          3.71521768	          0.24091082	        -13.37689598	          1.70353221	          8.17089009	          0.02862959	          0.00999999	          0.00999999	          0.03252656	          0.00999999	          0.02519984	          0.28035566	          0.01271303	          0.09231108	          0.00999999	          0.00999999	          0.33532458	          0.23665438	          0.01237057	          0.02886326	          0.16287353	          0.03673282	          0.00999999	          0.28073506	          0.05053916	          0.10565103	          0.07898416	          0.12656087	          0.01481650	          0.00999999	          0.01481650	          0.01295994	          0.32092910	
          0.66472752	         -4.23697907	          0.92677107	         -7.33160292	          0.77588486	          0.98787281	          0.00063353	        -13.89235753	         -2.43351458	         -5.42179980	        -11.09118707	          3.46357875	         38.35618439	         28.26036885	         -0.93980535	         -7.79917340	         -7.39730241	          3.29097872	          0.20670882	        -12.83639188	          1.21304173	          8.31499396	          0.02469251	          0.00999999	          0.00999999	          0.02672176	          0.00999999	          0.02861560	          0.23812007	          0.01044422	          0.09644818	          0.00999999	          0.00999999	          0.30590336	          0.21394235	          0.01016288	          0.02371222	          0.13380657	          0.03017735	          0.06018926	          0.23063413	          0.05990115	          0.08679619	          0.11587266	          0.10397438	          0.01217230	          0.00999999	          0.01217230	          0.01217230	          0.35929350	
          0.67776139	         -4.26692860	          1.07061966	         -7.31767183	          0.79610578	          0.98600034	         -0.00023731	        -14.29959432	         -2.82757392	         -5.85804846	        -12.28322633	          2.22638241	         39.99270350	         28.10891020	         -0.75020392	         -8.00516012	         -9.08742894	          2.72604915	          0.19539870	        -12.27684463	          0.69359453	          8.42062525	          0.02028580	          0.00999999	          0.00999999	          0.02195290	          0.00999999	          0.03367260	          0.19562435	          0.00999999	          0.12868702	          0.00999999	          0.00999999	          0.26440991	          0.18506901	          0.00999999	          0.01948046	          0.10992699	          0.02479180	          0.10951227	          0.22926335	          0.05802321	          0.07130625	          0.14496897	          0.08541876	          0.00999999	          0.00999999	          0.00999999	          0.00999999	          0.40151644	
          0.69079526	         -4.28054925	          1.22140120	         -7.27367535	          0.81626460	          0.98464580	         -0.00121317	        -14.41768484	         -3.26136201	         -6.31372726	        -13.98715206	          0.85045856	         41.48683817	         27.94885560	         -0.55251029	         -8.25611816	        -10.78263839	          2.17672746	          0.16504817	        -11.74209783	          0.16824913	          8.48722500	          0.06911028	          0.00999999	          0.00999999	          0.01803511	          0.01664061	          0.04401325	          0.16071257	          0.00999999	          0.10572110	          0.00999999	          0.00999999	          0.21722242	          0.15204097	          0.00999999	          0.02913230	          0.09030905	          0.02036737	          0.16197651	          0.24836002	          0.05936990	          0.05858069	          0.14516260	          0.07017464	          0.00999999	          0.07564936	          0.00999999	          0.00999999	          0.42416092	
          0.70382914	         -4.27994232	          1.38064365	         -7.20715678	          0.83611097	          0.98396354	         -0.00228199	        -14.18301885	         -3.74451402	         -6.78538165	        -16.27882416	         -0.63190572	         42.61394793	         27.81855629	         -0.34476668	         -8.49965021	        -12.57116878	          1.92414022	          0.12764158	        -11.25563174	         -0.36437643	          8.51783021	          0.08705062	          0.00999999	          0.00999999	          0.01481650	          0.11456063	          0.05358245	          0.13203126	          0.00999999	          0.11141116	          0.00999999	          0.00999999	          0.17845617	          0.12490722	          0.00999999	          0.02702744	          0.07419219	          0.01673254	          0.18811848	          0.25952894	          0.05834842	          0.04812618	          0.17318379	          0.05765104	          0.00999999	          0.18373050	          0.00999999	          0.00999999	          0.42903780	
          0.71686301	         -4.26829014	          1.53487183	         -7.11676667	          0.85545188	          0.98408763	         -0.00340696	        -13.55278165	         -4.26594344	         -7.31360080	        -19.20380313	         -2.14176461	         42.99589297	         27.66534744	         -0.12988617	         -8.71140426	        -14.34599600	          2.04034794	          0.09538828	        -10.83607889	         -0.89146308	          8.50919639	          0.09355831	          0.00999999	          0.00999999	          0.01217230	          0.17657755	          0.05448910	          0.10846851	          0.00999999	          0.09152834	          0.00999999	          0.00999999	          0.14660827	          0.10261585	          0.00999999	          0.02299239	          0.06095160	          0.01374640	          0.19503276	          0.27979757	          0.06066848	          0.03953742	          0.17839671	          0.04736244	          0.00999999	          0.23223352	          0.00999999	          0.00999999	          0.39751545	
